<mxfile host="app.diagrams.net" modified="2022-03-31T07:24:26.856Z" agent="5.0 (Macintosh; Intel Mac OS X 10_15_7) AppleWebKit/605.1.15 (KHTML, like Gecko) Version/15.4 Safari/605.1.15" etag="Sn9l7AR5DQecdbLBdazY" version="17.3.0" type="github">
  <diagram id="bD9_dn0sYCnPHjP34MeT" name="Page-1">
    <mxGraphModel dx="1554" dy="897" grid="1" gridSize="10" guides="1" tooltips="1" connect="1" arrows="1" fold="1" page="1" pageScale="1" pageWidth="850" pageHeight="1100" math="0" shadow="0">
      <root>
        <mxCell id="0" />
        <mxCell id="1" parent="0" />
        <mxCell id="itvusNKIcDiUwYbTguGG-3" value="" style="edgeStyle=orthogonalEdgeStyle;rounded=0;orthogonalLoop=1;jettySize=auto;html=1;" edge="1" parent="1" source="itvusNKIcDiUwYbTguGG-1" target="itvusNKIcDiUwYbTguGG-2">
          <mxGeometry relative="1" as="geometry" />
        </mxCell>
        <mxCell id="itvusNKIcDiUwYbTguGG-1" value="hello" style="rounded=0;whiteSpace=wrap;html=1;" vertex="1" parent="1">
          <mxGeometry x="220" y="330" width="130" height="70" as="geometry" />
        </mxCell>
        <mxCell id="itvusNKIcDiUwYbTguGG-2" value="flip" style="ellipse;whiteSpace=wrap;html=1;rounded=0;" vertex="1" parent="1">
          <mxGeometry x="420" y="120" width="120" height="60" as="geometry" />
        </mxCell>
      </root>
    </mxGraphModel>
  </diagram>
</mxfile>
